<?xml version="1.0" encoding="UTF-8" standalone="no"?>
<!-- Created with Inkscape (http://www.inkscape.org/) -->

<svg
   xmlns:dc="http://purl.org/dc/elements/1.1/"
   xmlns:cc="http://creativecommons.org/ns#"
   xmlns:rdf="http://www.w3.org/1999/02/22-rdf-syntax-ns#"
   xmlns:svg="http://www.w3.org/2000/svg"
   xmlns="http://www.w3.org/2000/svg"
   xmlns:sodipodi="http://sodipodi.sourceforge.net/DTD/sodipodi-0.dtd"
   xmlns:inkscape="http://www.inkscape.org/namespaces/inkscape"
   width="177.16534"
   height="141.73228"
   id="svg2"
   version="1.1"
   inkscape:version="0.48.5 r10040"
   sodipodi:docname="drawing1.gcode">
  <defs
     id="defs4" />
  <sodipodi:namedview
     id="base"
     pagecolor="#ffffff"
     bordercolor="#666666"
     borderopacity="1.0"
     inkscape:pageopacity="0.0"
     inkscape:pageshadow="2"
     inkscape:zoom="2.8"
     inkscape:cx="111.58466"
     inkscape:cy="4.24388"
     inkscape:document-units="mm"
     inkscape:current-layer="layer1"
     showgrid="false"
     units="mm"
     inkscape:window-width="1920"
     inkscape:window-height="1057"
     inkscape:window-x="-8"
     inkscape:window-y="-8"
     inkscape:window-maximized="1" />
  <metadata
     id="metadata7">
    <rdf:RDF>
      <cc:Work
         rdf:about="">
        <dc:format>image/svg+xml</dc:format>
        <dc:type
           rdf:resource="http://purl.org/dc/dcmitype/StillImage" />
        <dc:title></dc:title>
      </cc:Work>
    </rdf:RDF>
  </metadata>
  <g
     inkscape:label="Layer 1"
     inkscape:groupmode="layer"
     id="layer1"
     transform="translate(0,-910.63055)">
    <path
       style="fill:#000000"
       d="m 53.849763,962.12066 c -3.108103,0.56282 -5.636179,2.32061 -6.877113,4.7819 -0.518459,1.02827 -0.693783,1.73337 -0.680568,2.73697 l 0.01191,0.90427 0.06258,-0.63849 c 0.188291,-1.92084 1.028617,-3.66995 2.395471,-4.98603 1.899581,-1.82901 4.461647,-2.7588 7.60561,-2.75995 3.568282,0 6.866293,0.73592 11.399727,2.54797 5.226457,2.08916 28.984495,12.20386 50.99793,21.71184 5.33741,2.30535 10.32825,4.46028 11.09072,4.78874 0.76247,0.32854 1.37255,0.61102 1.35575,0.62785 -0.0169,0.0168 -8.01473,-2.07769 -17.77315,-4.65436 -9.75842,-2.57675 -20.500679,-5.41295 -23.871686,-6.30272 -8.518733,-2.24851 -9.502888,-2.51444 -13.38884,-3.6184 -7.080754,-2.01151 -8.746617,-2.33859 -11.930283,-2.34215 -2.058709,0 -3.299668,0.24923 -4.730491,0.95907 -2.947801,1.46245 -4.434535,4.45999 -4.055205,8.17605 0.227838,2.23197 1.042784,4.90936 2.233653,7.33839 l 0.337881,0.68914 -0.893521,-0.91724 c -2.341625,-2.40396 -4.984256,-5.78405 -6.772627,-8.66267 -2.561728,-4.12337 -3.782455,-7.3206 -3.996131,-10.46632 l -0.06657,-0.97999 -0.01232,1.22101 c -0.01445,1.43328 0.144868,2.36219 0.679533,3.96157 1.101271,3.29438 3.854974,7.90546 7.046414,11.79919 2.211602,2.69824 4.69019,5.27891 4.69019,4.8833 0,-0.0302 -0.30206,-0.67189 -0.671244,-1.42589 -1.070121,-2.18547 -1.753755,-4.12366 -2.154103,-6.10704 -0.274467,-1.35983 -0.273247,-3.61621 0.0025,-4.62768 0.790337,-2.89917 2.945905,-4.82519 6.114988,-5.46397 0.567762,-0.11442 1.136176,-0.15005 2.326197,-0.14568 3.073377,0.011 4.713476,0.33866 11.83257,2.36169 4.333907,1.23164 1.634113,0.51181 31.491415,8.39584 14.0195,3.70192 25.53071,6.71383 25.58048,6.69314 0.0497,-0.0204 0.0138,-0.043 -0.0797,-0.0503 -0.15685,-0.0117 -0.1581,-0.0175 -0.0159,-0.0735 0.10989,-0.0437 -0.60092,-0.38735 -2.46868,-1.19483 -34.253879,-14.80825 -60.164621,-25.85078 -64.022271,-27.28462 -2.602871,-0.9676 -5.050593,-1.60891 -7.156564,-1.87526 -1.3413,-0.16962 -4.703432,-0.17015 -5.638477,-7.4e-4 z"
       id="path3000"
       inkscape:connector-curvature="0" />
  </g>
</svg>
